<svg width="200" height="80" viewBox="0 0 200 80" xmlns="http://www.w3.org/2000/svg">
  <defs>
    <linearGradient id="greenGrad" x1="0%" y1="0%" x2="100%" y2="0%">
      <stop offset="0%" style="stop-color:#059669;stop-opacity:1" />
      <stop offset="100%" style="stop-color:#10b981;stop-opacity:1" />
    </linearGradient>
    <linearGradient id="yellowGrad" x1="0%" y1="0%" x2="100%" y2="0%">
      <stop offset="0%" style="stop-color:#f59e0b;stop-opacity:1" />
      <stop offset="100%" style="stop-color:#fbbf24;stop-opacity:1" />
    </linearGradient>
  </defs>

  <!-- Circle background with gradient -->
  <circle cx="40" cy="40" r="32" fill="url(#greenGrad)" opacity="0.9"/>

  <!-- Inner circle accent -->
  <circle cx="40" cy="40" r="24" fill="none" stroke="url(#yellowGrad)" stroke-width="2"/>

  <!-- Network dots representing "Pontos de Cultura" -->
  <circle cx="40" cy="28" r="3" fill="white"/>
  <circle cx="48" cy="36" r="3" fill="white"/>
  <circle cx="48" cy="44" r="3" fill="white"/>
  <circle cx="40" cy="52" r="3" fill="white"/>
  <circle cx="32" cy="44" r="3" fill="white"/>
  <circle cx="32" cy="36" r="3" fill="white"/>
  <circle cx="40" cy="40" r="3.5" fill="#fbbf24"/>

  <!-- Connecting lines -->
  <line x1="40" y1="28" x2="40" y2="40" stroke="white" stroke-width="1.5" opacity="0.7"/>
  <line x1="48" y1="36" x2="40" y2="40" stroke="white" stroke-width="1.5" opacity="0.7"/>
  <line x1="48" y1="44" x2="40" y2="40" stroke="white" stroke-width="1.5" opacity="0.7"/>
  <line x1="40" y1="52" x2="40" y2="40" stroke="white" stroke-width="1.5" opacity="0.7"/>
  <line x1="32" y1="44" x2="40" y2="40" stroke="white" stroke-width="1.5" opacity="0.7"/>
  <line x1="32" y1="36" x2="40" y2="40" stroke="white" stroke-width="1.5" opacity="0.7"/>

  <!-- CNPDC Text -->
  <text x="85" y="35" font-family="Arial, sans-serif" font-size="22" font-weight="bold" fill="#059669">CNPDC</text>

  <!-- Subtitle -->
  <text x="85" y="50" font-family="Arial, sans-serif" font-size="9" fill="#6b7280">Comissão Nacional de</text>
  <text x="85" y="60" font-family="Arial, sans-serif" font-size="9" fill="#6b7280">Pontos de Cultura</text>
</svg>
